<svg width="119" height="24" viewBox="0 0 119 24" fill="none" xmlns="http://www.w3.org/2000/svg">
<path d="M22.9886 7.62939e-06L19.125 23.2727H15.375L7.04542 7.42046H6.8636L4.21588 23.2727H-3.32594e-05L3.8636 7.62939e-06H7.63633L15.9545 15.8636H16.1704L18.7954 7.62939e-06H22.9886ZM23.7187 23.2727L27.5824 7.62939e-06H42.7187L42.1278 3.5341H31.2074L30.1619 9.85228H40.2983L39.7074 13.3864H29.571L28.5255 19.7386H39.5369L38.946 23.2727H23.7187ZM50.4289 7.62939e-06L54.1562 8.52274H54.338L60.8835 7.62939e-06H65.8039L56.7244 11.6364L62.0539 23.2727H57.2471L53.4744 14.8068H53.2926L46.7017 23.2727H41.7585L51.0653 11.6364L45.713 7.62939e-06H50.4289ZM67.5 3.5341L68.0909 7.62939e-06H86.6591L86.0681 3.5341H78.875L75.6022 23.2727H71.4204L74.6931 3.5341H67.5ZM92.191 17.3118L91.3409 17.5305C91.2978 17.3019 91.2182 17.0964 91.1022 16.9141C90.9896 16.7285 90.8255 16.5826 90.6101 16.4766C90.3979 16.3672 90.1195 16.3125 89.7748 16.3125C89.2578 16.3125 88.812 16.4385 88.4375 16.6903C88.0629 16.9389 87.8442 17.2571 87.7812 17.6449C87.7282 17.9697 87.7961 18.2332 87.9851 18.4354C88.1773 18.6376 88.4988 18.7966 88.9495 18.9127L90.0632 19.196C90.6797 19.3551 91.1188 19.6037 91.3806 19.9418C91.6458 20.2798 91.7369 20.7074 91.6541 21.2244C91.5812 21.6553 91.3972 22.0365 91.1022 22.3679C90.8106 22.6993 90.436 22.9595 89.9787 23.1484C89.5246 23.3374 89.0175 23.4318 88.4574 23.4318C87.705 23.4318 87.1134 23.2628 86.6825 22.9247C86.2549 22.5867 86.0262 22.0994 85.9964 21.4631L86.8863 21.2642C86.9128 21.715 87.067 22.0564 87.3487 22.2884C87.6337 22.5204 88.0348 22.6364 88.5518 22.6364C89.1418 22.6364 89.6373 22.5021 90.0383 22.2337C90.4394 21.9652 90.6697 21.6338 90.7294 21.2394C90.7857 20.9278 90.7277 20.6693 90.5554 20.4638C90.3863 20.2583 90.098 20.1058 89.6903 20.0064L88.5021 19.7081C87.8624 19.5457 87.41 19.2921 87.1449 18.9475C86.883 18.5994 86.7952 18.1702 86.8814 17.6598C86.951 17.2389 87.1266 16.8693 87.4083 16.5511C87.6901 16.233 88.0464 15.9844 88.4772 15.8054C88.9081 15.6231 89.3788 15.532 89.8892 15.532C90.5918 15.532 91.1271 15.6911 91.495 16.0092C91.8629 16.3241 92.0949 16.7583 92.191 17.3118ZM97.5243 15.6364L97.4 16.407H93.7509L93.8801 15.6364H97.5243ZM95.3169 13.8068H96.2068L94.9639 21.2791C94.9109 21.5973 94.9241 21.8475 95.0037 22.0298C95.0832 22.2088 95.2059 22.3364 95.3716 22.4127C95.5373 22.4856 95.7196 22.522 95.9185 22.522C96.0345 22.522 96.1339 22.5154 96.2168 22.5021C96.3029 22.4856 96.3792 22.469 96.4455 22.4524L96.5101 23.2528C96.414 23.286 96.2996 23.3158 96.167 23.3423C96.0345 23.3722 95.8754 23.3871 95.6898 23.3871C95.365 23.3871 95.065 23.3158 94.7899 23.1733C94.5148 23.0308 94.306 22.8187 94.1635 22.5369C94.021 22.2552 93.9829 21.9055 94.0491 21.4879L95.3169 13.8068ZM101.182 23.4318C100.513 23.4318 99.9492 23.2628 99.4918 22.9247C99.0344 22.5833 98.7113 22.111 98.5223 21.5078C98.3334 20.9046 98.3019 20.2086 98.4279 19.4198C98.5538 18.6508 98.8041 17.9747 99.1786 17.3913C99.5564 16.8047 100.02 16.349 100.571 16.0242C101.121 15.696 101.719 15.532 102.365 15.532C103.038 15.532 103.602 15.7027 104.056 16.044C104.513 16.3854 104.836 16.8577 105.025 17.4609C105.217 18.0642 105.251 18.7618 105.125 19.554C104.999 20.3196 104.747 20.9941 104.369 21.5774C103.991 22.1574 103.527 22.6115 102.977 22.9396C102.43 23.2678 101.832 23.4318 101.182 23.4318ZM101.192 22.6215C101.736 22.6215 102.22 22.4773 102.644 22.1889C103.071 21.8973 103.424 21.5095 103.703 21.0256C103.981 20.5384 104.168 20.0031 104.265 19.4198C104.354 18.8629 104.344 18.3509 104.235 17.8835C104.125 17.4162 103.915 17.0417 103.603 16.76C103.292 16.4782 102.877 16.3374 102.36 16.3374C101.82 16.3374 101.336 16.4849 100.909 16.7798C100.481 17.0715 100.128 17.4626 99.8498 17.9531C99.5713 18.4403 99.3857 18.974 99.2929 19.554C99.2001 20.1141 99.2068 20.6262 99.3128 21.0902C99.4222 21.5542 99.6327 21.9254 99.9442 22.2038C100.259 22.4823 100.675 22.6215 101.192 22.6215ZM106.451 23.2727L107.724 15.6364H108.584L108.385 16.8097H108.449C108.661 16.4252 108.978 16.1153 109.399 15.88C109.823 15.6413 110.276 15.522 110.756 15.522C110.829 15.522 110.91 15.5237 111 15.527C111.089 15.527 111.164 15.5303 111.224 15.5369L111.069 16.4368C111.03 16.4302 110.96 16.4202 110.861 16.407C110.764 16.3937 110.657 16.3871 110.537 16.3871C110.14 16.3871 109.772 16.4716 109.434 16.6406C109.099 16.8064 108.817 17.0367 108.589 17.3317C108.363 17.6267 108.217 17.9631 108.151 18.3409L107.336 23.2727H106.451ZM114.29 23.4318C113.577 23.4318 112.989 23.2661 112.525 22.9347C112.061 22.5999 111.736 22.1376 111.55 21.5476C111.365 20.9543 111.337 20.2716 111.466 19.4993C111.595 18.7304 111.85 18.0476 112.232 17.451C112.613 16.8511 113.083 16.3821 113.643 16.044C114.204 15.7027 114.812 15.532 115.468 15.532C115.882 15.532 116.27 15.6082 116.631 15.7607C116.993 15.9098 117.299 16.1402 117.551 16.4517C117.806 16.76 117.984 17.1494 118.083 17.62C118.182 18.0874 118.179 18.6409 118.073 19.2805L118.004 19.718H112.038L112.162 18.9375H117.228C117.311 18.447 117.288 18.0062 117.158 17.6151C117.029 17.224 116.809 16.9141 116.497 16.6854C116.189 16.4534 115.806 16.3374 115.349 16.3374C114.881 16.3374 114.439 16.4683 114.021 16.7301C113.607 16.992 113.256 17.3333 112.967 17.7543C112.682 18.1719 112.498 18.6177 112.415 19.0916L112.316 19.6783C112.21 20.3246 112.223 20.8665 112.356 21.304C112.488 21.7382 112.729 22.0663 113.077 22.2884C113.425 22.5104 113.87 22.6215 114.414 22.6215C114.779 22.6215 115.108 22.5651 115.403 22.4524C115.698 22.3397 115.955 22.1889 116.174 22C116.393 21.8078 116.568 21.5973 116.701 21.3686L117.491 21.6421C117.322 21.9635 117.084 22.2602 116.776 22.532C116.471 22.8037 116.108 23.0225 115.687 23.1882C115.269 23.3506 114.803 23.4318 114.29 23.4318Z" fill="white"/>
</svg>
